<?xml version="1.0" encoding="UTF-8"?>
<svg version="1.1" xmlns="http://www.w3.org/2000/svg" width="128" height="128">
<path d="M0 0 C2.87556181 1.4906271 5.45923002 2.41304112 8.58203125 3.22265625 C13.03631527 4.45714988 15.40787409 5.62693805 18.08203125 9.59765625 C18.93110942 12.46771736 19.57285463 15.34680514 20.19921875 18.2734375 C21.43439996 22.92449595 23.50047333 27.02162277 25.6796875 31.296875 C28.89191291 38.85768412 29.4434119 46.26338199 29.39453125 54.41015625 C29.38715942 55.86373535 29.38715942 55.86373535 29.37963867 57.34667969 C29.22705568 66.67693419 27.90425222 74.42222846 23.39453125 82.66015625 C20.81961826 87.36943665 20.9583282 90.91135463 21.21875 96.171875 C21.08203125 98.59765625 21.08203125 98.59765625 18.89453125 101.72265625 C15.30597033 104.1150302 12.91181735 104.71201788 8.64453125 104.4453125 C5.62282079 104.62495687 4.8106755 105.24726703 2.58203125 107.22265625 C-8.35888822 115.95057311 -20.91050183 118.99667829 -34.60546875 118.97265625 C-35.56791504 118.97104492 -36.53036133 118.96943359 -37.52197266 118.96777344 C-47.28643731 118.80097133 -55.78418635 116.89852602 -64.48046875 112.28515625 C-67.70286998 110.34817787 -67.70286998 110.34817787 -70.73046875 110.78515625 C-71.81328125 111.18734375 -71.81328125 111.18734375 -72.91796875 111.59765625 C-77.94655074 113.27385025 -82.25827286 113.2040836 -87.16796875 111.41015625 C-90.73574985 109.05866416 -93.01017954 106.41323468 -94.91796875 102.59765625 C-95.39525897 97.57693027 -95.48743626 93.67768084 -93.10546875 89.16015625 C-91.67761102 84.87658307 -92.23714469 84.11405135 -94.10546875 80.16015625 C-94.57339844 79.29519531 -95.04132813 78.43023437 -95.5234375 77.5390625 C-99.03175493 70.13916608 -99.30562888 62.97212782 -99.29296875 54.91015625 C-99.29135742 53.84667969 -99.28974609 52.78320312 -99.28808594 51.6875 C-99.13332411 41.75846683 -97.26218806 33.92432979 -92.60546875 25.09765625 C-90.67086173 21.82064439 -90.67086173 21.82064439 -91.10546875 18.78515625 C-91.37359375 18.06328125 -91.64171875 17.34140625 -91.91796875 16.59765625 C-93.59416275 11.56907426 -93.5243961 7.25735214 -91.73046875 2.34765625 C-89.10358842 -1.63795529 -86.44855283 -3.89214906 -81.91796875 -5.40234375 C-77.18399837 -5.87941053 -73.79608956 -5.87392715 -69.54296875 -3.58984375 C-65.21907434 -2.17339558 -64.5085464 -2.69517887 -60.54296875 -4.58984375 C-59.68960938 -5.05777344 -58.83625 -5.52570312 -57.95703125 -6.0078125 C-39.26470163 -14.58514113 -16.96242179 -9.66058121 0 0 Z M-63.91796875 2.59765625 C-63.25796875 5.23765625 -62.59796875 7.87765625 -61.91796875 10.59765625 C-61.17933594 10.25992187 -60.44070312 9.9221875 -59.6796875 9.57421875 C-52.80127093 6.55016267 -46.39464806 4.42966477 -38.91796875 3.59765625 C-38.21671875 3.51386719 -37.51546875 3.43007812 -36.79296875 3.34375 C-31.56968008 3.03707964 -26.71093177 4.18855126 -21.66796875 5.41015625 C-20.9819458 5.57531738 -20.29592285 5.74047852 -19.58911133 5.91064453 C-15.56673841 6.95491915 -12.4305301 8.42410322 -8.91796875 10.59765625 C-7.92796875 10.59765625 -6.93796875 10.59765625 -5.91796875 10.59765625 C-4.08463542 8.84765625 -4.08463542 8.84765625 -2.91796875 6.59765625 C-3.62328397 3.38290938 -3.62328397 3.38290938 -6.54296875 2.0625 C-25.73651381 -6.62346773 -44.85464656 -7.36207346 -63.91796875 2.59765625 Z M-54.91796875 12.59765625 C-55.76617187 13.01015625 -56.614375 13.42265625 -57.48828125 13.84765625 C-68.72707695 19.89667167 -75.89747931 29.56772117 -79.91796875 41.59765625 C-80.28935958 44.25583886 -80.28935958 44.25583886 -79.91796875 46.59765625 C-78.92796875 47.80421875 -78.92796875 47.80421875 -77.91796875 49.03515625 C-75.91796875 51.59765625 -75.91796875 51.59765625 -75.35546875 54.53515625 C-75.91796875 57.59765625 -75.91796875 57.59765625 -78.66796875 60.28515625 C-80.12778433 61.72237014 -80.12778433 61.72237014 -80.91796875 63.59765625 C-80.35363122 67.61142764 -78.71174339 70.99044916 -76.91796875 74.59765625 C-76.49902344 75.46132812 -76.08007812 76.325 -75.6484375 77.21484375 C-69.50453498 88.58194869 -59.67040385 95.62844954 -47.61328125 99.71875 C-43.60072591 100.67311041 -40.09823098 100.795537 -35.98046875 100.72265625 C-35.29662109 100.71363281 -34.61277344 100.70460938 -33.90820312 100.6953125 C-32.24463588 100.67204583 -30.58125244 100.63618792 -28.91796875 100.59765625 C-28.64984375 99.62828125 -28.38171875 98.65890625 -28.10546875 97.66015625 C-27.71359375 96.64953125 -27.32171875 95.63890625 -26.91796875 94.59765625 C-22.77859076 93.21786359 -18.7505652 92.76348669 -14.6953125 94.609375 C-14.10878906 94.93550781 -13.52226563 95.26164062 -12.91796875 95.59765625 C-0.98208431 88.55216891 6.76027993 79.17124498 10.63769531 65.66162109 C13.16327592 53.93016038 11.12014916 42.37979944 5.6875 31.91015625 C3.92558729 29.37231604 3.06242422 28.87121264 0.20703125 27.91015625 C-2.566296 26.68589467 -3.67729391 26.0606155 -5.09375 23.3359375 C-5.42761719 22.47355469 -5.76148437 21.61117188 -6.10546875 20.72265625 C-8.71571732 14.62907598 -12.93373308 13.07445994 -18.859375 10.65625 C-30.36067495 6.67559574 -44.04532591 7.03975576 -54.91796875 12.59765625 Z M-85.91796875 23.59765625 C-94.19741208 40.51651871 -96.81681974 56.40130137 -91.0859375 74.58203125 C-89.8782031 77.70032877 -88.46577862 80.63508608 -86.91796875 83.59765625 C-84.27796875 82.93765625 -81.63796875 82.27765625 -78.91796875 81.59765625 C-80.14686532 78.63956135 -81.37868908 75.6829248 -82.62109375 72.73046875 C-83.36872371 70.92444699 -84.09846499 69.11031641 -84.77734375 67.27734375 C-85.51464892 65.21359808 -85.51464892 65.21359808 -86.91796875 62.59765625 C-88.96797746 61.79236736 -88.96797746 61.79236736 -90.91796875 61.59765625 C-91.81011527 58.92121668 -92.05337086 57.34381247 -92.04296875 54.59765625 C-92.04554687 53.91703125 -92.048125 53.23640625 -92.05078125 52.53515625 C-91.91796875 50.59765625 -91.91796875 50.59765625 -90.91796875 47.59765625 C-89.74814453 47.25347656 -89.74814453 47.25347656 -88.5546875 46.90234375 C-85.20706801 45.24589203 -84.65154183 43.36079884 -83.44335938 39.9296875 C-83.20810547 39.20136719 -82.97285156 38.47304688 -82.73046875 37.72265625 C-82.23870491 36.28716806 -81.74526394 34.85225312 -81.25 33.41796875 C-81.02393066 32.75055664 -80.79786133 32.08314453 -80.56494141 31.39550781 C-79.83675745 29.37198078 -78.95768936 27.47999405 -77.91796875 25.59765625 C-80.55796875 24.93765625 -83.19796875 24.27765625 -85.91796875 23.59765625 Z M10.08203125 29.59765625 C10.34757812 30.20351563 10.613125 30.809375 10.88671875 31.43359375 C16.84023004 45.55688697 17.42138488 57.8438539 13.08203125 72.59765625 C8.51534227 83.65253721 8.51534227 83.65253721 4.08203125 87.59765625 C4.41203125 88.25765625 4.74203125 88.91765625 5.08203125 89.59765625 C6.07203125 88.93765625 7.06203125 88.27765625 8.08203125 87.59765625 C9.17515625 87.63890625 10.26828125 87.68015625 11.39453125 87.72265625 C15.16718849 86.97917109 15.16718849 86.97917109 16.765625 84.25390625 C18.40113615 81.08892707 19.78485741 77.91527663 21.08203125 74.59765625 C21.42492187 73.7365625 21.7678125 72.87546875 22.12109375 71.98828125 C26.85013569 57.75695879 24.87529868 41.52738448 18.4453125 28.20703125 C17.99542969 27.3459375 17.54554687 26.48484375 17.08203125 25.59765625 C13.948797 25.59765625 12.40182341 27.64414706 10.08203125 29.59765625 Z M-1.73046875 93.41015625 C-6.75422191 97.48407129 -6.75422191 97.48407129 -9.13671875 99.13671875 C-11.89152771 101.39614539 -12.66983641 104.32873822 -13.91796875 107.59765625 C-14.24796875 108.25765625 -14.57796875 108.91765625 -14.91796875 109.59765625 C-11.00188031 109.01619768 -8.22700082 107.84351045 -4.85546875 105.78515625 C-3.60056641 105.03298828 -3.60056641 105.03298828 -2.3203125 104.265625 C0.17433509 102.53356887 2.16233474 100.95664258 4.08203125 98.59765625 C4.56125484 96.24240964 4.56125484 96.24240964 4.33203125 93.84765625 C4.27789062 92.64882812 4.27789062 92.64882812 4.22265625 91.42578125 C4.17625 90.8225 4.12984375 90.21921875 4.08203125 89.59765625 C1.96063615 89.59765625 -0.19856177 92.16534165 -1.73046875 93.41015625 Z M-63.91796875 97.59765625 C-64.57796875 100.23765625 -65.23796875 102.87765625 -65.91796875 105.59765625 C-55.48822899 110.70157145 -46.37755713 113.83760725 -34.73046875 113.91015625 C-33.9820874 113.91571533 -33.23370605 113.92127441 -32.46264648 113.92700195 C-27.33167897 113.86076305 -22.85342416 113.00059997 -17.91796875 111.59765625 C-17.91796875 111.26765625 -17.91796875 110.93765625 -17.91796875 110.59765625 C-18.55605469 110.48808594 -19.19414063 110.37851563 -19.8515625 110.265625 C-21.09099609 110.02779297 -21.09099609 110.02779297 -22.35546875 109.78515625 C-23.59103516 109.55892578 -23.59103516 109.55892578 -24.8515625 109.328125 C-25.87443359 108.96654297 -25.87443359 108.96654297 -26.91796875 108.59765625 C-27.41296875 107.11265625 -27.41296875 107.11265625 -27.91796875 105.59765625 C-28.59859375 105.6440625 -29.27921875 105.69046875 -29.98046875 105.73828125 C-41.8214423 106.17916856 -53.63168829 103.59798652 -63.91796875 97.59765625 Z " fill="#000100" transform="translate(98.91796875,9.40234375)"/>
<path d="M0 0 C2.1239866 0.21449126 4.24441447 0.4675238 6.359375 0.7578125 C9.34642502 1.23642199 9.34642502 1.23642199 12.671875 0.3203125 C13.5175 0.2378125 14.363125 0.1553125 15.234375 0.0703125 C16.90104167 1.73697917 18.56770833 3.40364583 20.234375 5.0703125 C22.46044302 5.68556572 22.46044302 5.68556572 24.859375 6.0078125 C27.20703125 6.4140625 27.20703125 6.4140625 29.234375 7.0703125 C31.51726776 10.32170522 32.234375 12.11292572 32.234375 16.0703125 C32.9975 16.3178125 33.760625 16.5653125 34.546875 16.8203125 C37.64412434 18.26089359 38.70948804 19.02053858 40.234375 22.0703125 C40.234375 24.08750225 40.22983517 26.10605434 40.13671875 28.12109375 C40.27736626 30.92841802 41.80060647 32.70147754 43.234375 35.0703125 C43.00014372 38.97416716 42.42104186 40.79031221 40.234375 44.0703125 C40.275625 45.3490625 40.316875 46.6278125 40.359375 47.9453125 C40.44409254 51.23114294 40.26152242 52.02474361 38.484375 55.0078125 C36.27686831 57.0313603 35.16607864 57.7562014 32.234375 58.0703125 C32.151875 58.9778125 32.069375 59.8853125 31.984375 60.8203125 C31.11047906 64.60719492 30.38489814 65.8317829 27.234375 68.0703125 C25.5328125 68.286875 25.5328125 68.286875 23.796875 68.5078125 C20.05035402 68.7355318 20.05035402 68.7355318 17.671875 71.6953125 C16.4653125 72.8709375 16.4653125 72.8709375 15.234375 74.0703125 C12.24475799 73.94828732 9.9348151 73.29692547 7.109375 72.3828125 C5.16456587 71.86300054 5.16456587 71.86300054 3.359375 73.0703125 C0.29386764 74.5129042 -1.56780368 74.02285502 -4.765625 73.0703125 C-5.19875 72.4309375 -5.631875 71.7915625 -6.078125 71.1328125 C-8.16551378 68.58155955 -9.08956691 68.69141175 -12.265625 68.1953125 C-16.51412452 67.42851015 -16.51412452 67.42851015 -18.828125 64.1328125 C-19.765625 61.0703125 -19.765625 61.0703125 -19.765625 58.0703125 C-20.52875 57.8228125 -21.291875 57.5753125 -22.078125 57.3203125 C-25.17537434 55.87973141 -26.24073804 55.12008642 -27.765625 52.0703125 C-27.765625 50.05312275 -27.76108517 48.03457066 -27.66796875 46.01953125 C-27.80861626 43.21220698 -29.33185647 41.43914746 -30.765625 39.0703125 C-30.53139372 35.16645784 -29.95229186 33.35031279 -27.765625 30.0703125 C-27.8275 28.1521875 -27.8275 28.1521875 -27.890625 26.1953125 C-27.97534254 22.90948206 -27.79277242 22.11588139 -26.015625 19.1328125 C-23.80811831 17.1092647 -22.69732864 16.3844236 -19.765625 16.0703125 C-19.683125 15.1628125 -19.600625 14.2553125 -19.515625 13.3203125 C-18.64172906 9.53343008 -17.91614814 8.3088421 -14.765625 6.0703125 C-13.63125 5.9259375 -12.496875 5.7815625 -11.328125 5.6328125 C-7.58791511 5.44327445 -7.58791511 5.44327445 -5.578125 2.4453125 C-2.765625 0.0703125 -2.765625 0.0703125 0 0 Z " fill="#EF8E00" transform="translate(57.765625,26.9296875)"/>
<path d="M0 0 C5.13323344 4.54991146 8.60013454 8.40923689 9.203125 15.33203125 C9.33573189 22.34914574 8.35575598 27.27228256 3.625 32.75 C-2.17571291 37.72203963 -6.90428081 39.31348104 -14.43359375 39.21484375 C-21.96493367 38.58436628 -26.09855081 34.41956512 -30.75 28.9375 C-33.79731138 24.21416736 -33.46869228 18.42343923 -33 13 C-31.50750607 7.29340557 -28.32154086 2.6250786 -23.5 -0.75 C-15.98421124 -4.50789438 -7.25361644 -4.12460543 0 0 Z " fill="#FDE939" transform="translate(76,46)"/>
<path d="M0 0 C2.1239866 0.21449126 4.24441447 0.4675238 6.359375 0.7578125 C9.34642502 1.23642199 9.34642502 1.23642199 12.671875 0.3203125 C13.5175 0.2378125 14.363125 0.1553125 15.234375 0.0703125 C16.90104167 1.73697917 18.56770833 3.40364583 20.234375 5.0703125 C22.46044302 5.68556572 22.46044302 5.68556572 24.859375 6.0078125 C27.20703125 6.4140625 27.20703125 6.4140625 29.234375 7.0703125 C31.51726776 10.32170522 32.234375 12.11292572 32.234375 16.0703125 C32.9975 16.3178125 33.760625 16.5653125 34.546875 16.8203125 C37.64412434 18.26089359 38.70948804 19.02053858 40.234375 22.0703125 C40.234375 24.08750225 40.22983517 26.10605434 40.13671875 28.12109375 C40.27736626 30.92841802 41.80060647 32.70147754 43.234375 35.0703125 C43.00014372 38.97416716 42.42104186 40.79031221 40.234375 44.0703125 C40.275625 45.3490625 40.316875 46.6278125 40.359375 47.9453125 C40.44409254 51.23114294 40.26152242 52.02474361 38.484375 55.0078125 C36.27686831 57.0313603 35.16607864 57.7562014 32.234375 58.0703125 C32.151875 58.9778125 32.069375 59.8853125 31.984375 60.8203125 C31.11047906 64.60719492 30.38489814 65.8317829 27.234375 68.0703125 C25.5328125 68.286875 25.5328125 68.286875 23.796875 68.5078125 C20.05035402 68.7355318 20.05035402 68.7355318 17.671875 71.6953125 C16.4653125 72.8709375 16.4653125 72.8709375 15.234375 74.0703125 C12.24475799 73.94828732 9.9348151 73.29692547 7.109375 72.3828125 C5.16456587 71.86300054 5.16456587 71.86300054 3.359375 73.0703125 C0.29386764 74.5129042 -1.56780368 74.02285502 -4.765625 73.0703125 C-5.19875 72.4309375 -5.631875 71.7915625 -6.078125 71.1328125 C-8.16551378 68.58155955 -9.08956691 68.69141175 -12.265625 68.1953125 C-16.51412452 67.42851015 -16.51412452 67.42851015 -18.828125 64.1328125 C-19.765625 61.0703125 -19.765625 61.0703125 -19.765625 58.0703125 C-20.52875 57.8228125 -21.291875 57.5753125 -22.078125 57.3203125 C-25.17537434 55.87973141 -26.24073804 55.12008642 -27.765625 52.0703125 C-27.765625 50.05312275 -27.76108517 48.03457066 -27.66796875 46.01953125 C-27.80861626 43.21220698 -29.33185647 41.43914746 -30.765625 39.0703125 C-30.53139372 35.16645784 -29.95229186 33.35031279 -27.765625 30.0703125 C-27.8275 28.1521875 -27.8275 28.1521875 -27.890625 26.1953125 C-27.97534254 22.90948206 -27.79277242 22.11588139 -26.015625 19.1328125 C-23.80811831 17.1092647 -22.69732864 16.3844236 -19.765625 16.0703125 C-19.683125 15.1628125 -19.600625 14.2553125 -19.515625 13.3203125 C-18.64172906 9.53343008 -17.91614814 8.3088421 -14.765625 6.0703125 C-13.63125 5.9259375 -12.496875 5.7815625 -11.328125 5.6328125 C-7.58791511 5.44327445 -7.58791511 5.44327445 -5.578125 2.4453125 C-2.765625 0.0703125 -2.765625 0.0703125 0 0 Z M-1.765625 5.0703125 C-2.52875 5.8540625 -3.291875 6.6378125 -4.078125 7.4453125 C-7.32592418 10.61758146 -9.32309119 10.80898698 -13.765625 11.0703125 C-14.136875 12.3284375 -14.508125 13.5865625 -14.890625 14.8828125 C-16.18099488 18.40483657 -16.58834604 18.95907864 -19.953125 21.0703125 C-20.88125 21.4003125 -21.809375 21.7303125 -22.765625 22.0703125 C-22.73082031 22.66199219 -22.69601563 23.25367187 -22.66015625 23.86328125 C-22.48131348 29.08378685 -23.01500553 31.56929882 -25.765625 36.0703125 C-25.10282117 38.50059322 -24.5645278 40.2714097 -22.765625 42.0703125 C-22.82390784 43.69640369 -22.91207597 45.32147536 -23.015625 46.9453125 C-23.11513196 49.62850621 -23.11513196 49.62850621 -22.765625 52.0703125 C-20.32711648 54.25213591 -19.0335101 55.0703125 -15.765625 55.0703125 C-15.62125 56.2046875 -15.476875 57.3390625 -15.328125 58.5078125 C-15.15391022 61.87808451 -15.15391022 61.87808451 -13.765625 63.0703125 C-12.31149531 63.36287644 -10.85214953 63.62976537 -9.390625 63.8828125 C-5.03844118 64.78922916 -5.03844118 64.78922916 -2.703125 67.1953125 C-2.39375 67.8140625 -2.084375 68.4328125 -1.765625 69.0703125 C-0.9921875 68.8228125 -0.9921875 68.8228125 -0.203125 68.5703125 C4.68765612 67.56707535 9.40735934 67.90012688 14.234375 69.0703125 C14.729375 68.2659375 15.224375 67.4615625 15.734375 66.6328125 C19.19133439 63.08942912 21.38225709 63.3129184 26.234375 63.0703125 C26.605625 61.8121875 26.976875 60.5540625 27.359375 59.2578125 C28.64974488 55.73578843 29.05709604 55.18154636 32.421875 53.0703125 C33.8140625 52.5753125 33.8140625 52.5753125 35.234375 52.0703125 C35.18216797 51.05710937 35.18216797 51.05710937 35.12890625 50.0234375 C35.08830078 48.68539062 35.08830078 48.68539062 35.046875 47.3203125 C35.01207031 46.43859375 34.97726563 45.556875 34.94140625 44.6484375 C35.28694932 41.60765846 36.36751892 40.42285472 38.234375 38.0703125 C37.50285185 35.65529762 37.50285185 35.65529762 36.234375 33.0703125 C35.57485104 29.31102591 35.234375 25.89201819 35.234375 22.0703125 C32.04670944 19.69322497 32.04670944 19.69322497 28.234375 19.0703125 C28.09 17.9359375 27.945625 16.8015625 27.796875 15.6328125 C27.62266022 12.26254049 27.62266022 12.26254049 26.234375 11.0703125 C24.97625 10.9878125 23.718125 10.9053125 22.421875 10.8203125 C18.8706421 10.44414959 18.3923373 10.23222386 15.734375 7.5078125 C15.239375 6.7034375 14.744375 5.8990625 14.234375 5.0703125 C13.55375 5.2353125 12.873125 5.4003125 12.171875 5.5703125 C8.11568217 6.2607283 4.01228723 6.75010247 0.109375 5.2578125 C-0.509375 5.1959375 -1.128125 5.1340625 -1.765625 5.0703125 Z " fill="#040200" transform="translate(57.765625,26.9296875)"/>
<path d="M0 0 C5.38899749 5.20747336 8.7323138 11.93018556 9.12890625 19.44140625 C8.75214744 26.73682689 6.36257387 33.71215 1.06640625 38.890625 C-7.03099781 45.19710982 -14.96833163 46.14323941 -25 45 C-32.72686286 42.34704317 -37.31828512 37.13247348 -41 30 C-43.15404162 23.53787514 -43.179495 15.457451 -40.9765625 9 C-36.92163019 1.65183538 -31.17200591 -2.25534298 -23.5625 -5.4375 C-14.85874485 -6.81177713 -7.25906752 -5.05251159 0 0 Z M-34 6 C-38.20148592 12.00212274 -38.60847556 17.83105163 -38 25 C-35.90121358 31.73820903 -31.89186669 36.19879568 -26 40 C-20.08871393 41.82666351 -14.04778844 41.63783574 -8.1875 39.8125 C-3.34045833 37.05633905 1.8533179 32.71079069 3.5625 27.1796875 C4.93426091 20.3453787 4.47856183 14.1174708 1 8 C-3.08744658 3.26716712 -7.80628945 -0.61875359 -14.234375 -1.203125 C-22.36552547 -1.35463712 -27.91425898 0.25235571 -34 6 Z " fill="#110C01" transform="translate(81,44)"/>
<path d="M0 0 C2.97672584 1.77280561 5.42804007 3.85608015 7 7 C7.2262475 12.0069555 6.69507747 15.16929766 3.4375 19.0625 C-1.03699068 21.58448566 -2.93088294 21.72415958 -8 21 C-10.8100346 19.20636089 -12.50940468 17.98119065 -14 15 C-14.42071592 11.94079426 -14.48514117 9.0532254 -14 6 C-9.78502349 0.67581915 -6.7408423 -0.67408423 0 0 Z " fill="#FA5521" transform="translate(23,96)"/>
<path d="M0 0 C2.75569447 2.18159145 4.43588747 3.87177494 6 7 C6.08362715 10.0942044 5.79361144 13.00664679 5 16 C2.02964325 19.04651974 -0.52900343 20.79940956 -4.75 21.375 C-9.2753858 20.8528401 -10.7671103 19.15770622 -14 16 C-15.60086627 12.79826746 -15.49917089 9.47422941 -15 6 C-11.10085179 -0.10866553 -6.96919421 -1.10736765 0 0 Z " fill="#FAD700" transform="translate(26,9)"/>
<path d="M0 0 C4.21796616 0.86080942 6.17690429 2.46458565 9.0625 5.625 C9.7562386 9.32493918 9.33546546 11.06666155 7.6875 14.4375 C6.0625 16.625 6.0625 16.625 4.0625 17.625 C-2.20269337 18.2051105 -2.20269337 18.2051105 -5.3125 15.75 C-7.9939025 12.24355058 -8.45816537 10.05065562 -7.9375 5.625 C-5.50679333 2.33639686 -4.0299485 0.85743585 0 0 Z " fill="#02A4EE" transform="translate(103.9375,16.375)"/>
<path d="M0 0 C5.05922501 0.56213611 7.6343705 4.39050808 10.75 8.0625 C13.80007015 12.79010873 13.46067822 18.57237294 13 24 C11.12736542 30.0121426 8.22342623 34.17048781 2.6875 37.3125 C2.130625 37.539375 1.57375 37.76625 1 38 C2.16975393 35.46553315 3.47225558 33.31308279 5.0625 31 C8.52948171 25.63177026 8.51827571 20.25700131 8 14 C6.70630952 8.21404574 3.98248456 4.30538872 0 0 Z " fill="#F3D032" transform="translate(72,45)"/>
<path d="M0 0 C4.41345479 1.34855563 6.74559607 2.92473136 9 7 C9.35104247 10.22374002 9.07931584 12.93917098 8 16 C6.15688782 18.19853326 4.43097747 19.39658933 2 21 C2 18 2 18 3.0625 15.75 C4.71048822 10.91590123 3.50039748 7.10087446 1.4375 2.5625 C0.963125 1.716875 0.48875 0.87125 0 0 Z " fill="#C93E13" transform="translate(21,96)"/>
<path d="M0 0 C3.01990039 0.89780822 4.73870172 1.7125719 6.875 4.0625 C8.46700911 8.21941268 8.33774814 11.75720116 7 16 C4.4375 18.5625 4.4375 18.5625 2 20 C1.34 19.67 0.68 19.34 0 19 C0.495 18.13375 0.99 17.2675 1.5 16.375 C3.09257429 12.79170785 3.49276851 10.86001998 3 7 C1.57378316 4.28873616 1.57378316 4.28873616 0 2 C0 1.34 0 0.68 0 0 Z " fill="#F1B807" transform="translate(24,9)"/>
<path d="M0 0 C4.14524671 -0.49348175 5.779961 -0.13854307 9.375 2.125 C12 5 12 5 12.5625 8 C11.92891165 11.37913786 11.19713862 13.34828097 9 16 C6.3125 16.8125 6.3125 16.8125 4 17 C4.7425 15.9790625 4.7425 15.9790625 5.5 14.9375 C7.33427147 11.34538504 7.36917963 8.98714001 7 5 C5.33045181 1.77595022 5.33045181 1.77595022 2.375 1.3125 C1.59125 1.209375 0.8075 1.10625 0 1 C0 0.67 0 0.34 0 0 Z " fill="#0271B1" transform="translate(101,17)"/>
<path d="M0 0 C4.55555556 0.55555556 4.55555556 0.55555556 6 2 C6.1875 4.4375 6.1875 4.4375 6 7 C5.34 7.66 4.68 8.32 4 9 C-0.55555556 8.44444444 -0.55555556 8.44444444 -2 7 C-2.1875 4.5625 -2.1875 4.5625 -2 2 C-1.34 1.34 -0.68 0.68 0 0 Z " fill="#EACA00" transform="translate(109,100)"/>
<path d="M0 0 C2.5625 0.1875 2.5625 0.1875 4.5625 2.1875 C4.1875 4.8125 4.1875 4.8125 3.5625 7.1875 C1.1875 7.8125 1.1875 7.8125 -1.4375 8.1875 C-3.4375 6.1875 -3.4375 6.1875 -3.625 3.625 C-3.37291261 0.34786389 -3.27713611 0.25208739 0 0 Z " fill="#01A4ED" transform="translate(78.4375,106.8125)"/>
<path d="M0 0 C0.625 2.375 0.625 2.375 1 5 C0.34 5.66 -0.32 6.32 -1 7 C-5.55555556 6.44444444 -5.55555556 6.44444444 -7 5 C-7.04063832 3.33382885 -7.042721 1.66611905 -7 0 C-4.3333581 -1.33332095 -2.83319697 -0.67102033 0 0 Z " fill="#00B8CF" transform="translate(18,61)"/>
</svg>
